<svg width="199" height="199" viewBox="0 0 199 199" fill="none" xmlns="http://www.w3.org/2000/svg">
<circle cx="99.5" cy="99.5" r="99.5" fill="white"/>
<rect x="25.8198" y="92.3126" width="27.4724" height="14.2327" fill="#FFD354"/>
<path d="M39.5559 71.7911C47.0868 71.7912 53.2014 77.8516 53.2903 85.3615H53.2922V90.3263H25.8196V85.3615H25.8215C25.9104 77.8516 32.025 71.7911 39.5559 71.7911Z" fill="black"/>
<path d="M39.5557 127.066C32.0248 127.066 25.9102 121.006 25.8213 113.496L25.8193 113.496L25.8193 108.531L53.292 108.531L53.292 113.496L53.29 113.496C53.2012 121.006 47.0866 127.066 39.5557 127.066Z" fill="#B91717"/>
<path d="M74.7898 114.54C75.6669 114.54 76.4382 114.424 77.1039 114.191C77.7801 113.959 78.3455 113.637 78.7998 113.224C79.2647 112.802 79.6134 112.3 79.8459 111.719C80.0783 111.138 80.1946 110.498 80.1946 109.801C80.1946 108.353 79.7455 107.223 78.8474 106.409C77.9598 105.596 76.6073 105.189 74.7898 105.189H71.1444V114.54H74.7898ZM74.7898 102.764C76.2269 102.764 77.4737 102.933 78.5304 103.271C79.5976 103.598 80.4799 104.069 81.1773 104.682C81.8746 105.294 82.3924 106.034 82.7305 106.9C83.0792 107.767 83.2536 108.734 83.2536 109.801C83.2536 110.858 83.0686 111.824 82.6988 112.701C82.329 113.578 81.7848 114.334 81.0663 114.968C80.3584 115.602 79.4761 116.099 78.4194 116.458C77.3733 116.806 76.1635 116.981 74.7898 116.981H71.1444V125.476H68.0854V102.764H74.7898Z" fill="black"/>
<path d="M93.4159 113.763C94.3035 113.763 95.0854 113.658 95.7617 113.446C96.4485 113.224 97.0191 112.918 97.4734 112.527C97.9383 112.126 98.287 111.65 98.5195 111.101C98.752 110.551 98.8682 109.944 98.8682 109.278C98.8682 107.925 98.4244 106.906 97.5368 106.219C96.6492 105.532 95.3179 105.189 93.5427 105.189H90.1826V113.763H93.4159ZM103.908 125.476H101.182C100.622 125.476 100.21 125.26 99.946 124.826L94.0499 116.711C93.8703 116.458 93.6748 116.278 93.4635 116.173C93.2627 116.056 92.9457 115.998 92.5125 115.998H90.1826V125.476H87.1236V102.764H93.5427C94.9797 102.764 96.2213 102.912 97.2674 103.207C98.3135 103.493 99.1746 103.91 99.8509 104.46C100.538 105.009 101.045 105.675 101.372 106.457C101.7 107.228 101.864 108.094 101.864 109.056C101.864 109.859 101.737 110.609 101.483 111.307C101.23 112.004 100.86 112.633 100.374 113.193C99.8984 113.742 99.312 114.212 98.6146 114.603C97.9278 114.994 97.1459 115.29 96.2688 115.491C96.6598 115.713 96.9979 116.035 97.2832 116.458L103.908 125.476Z" fill="black"/>
<path d="M121.009 122.972L120.993 125.476H106.998V102.764H120.993V105.268H110.072V112.812H118.917V115.222H110.072V122.972H121.009Z" fill="black"/>
<path d="M131.997 114.54C132.874 114.54 133.646 114.424 134.311 114.191C134.987 113.959 135.553 113.637 136.007 113.224C136.472 112.802 136.821 112.3 137.053 111.719C137.286 111.138 137.402 110.498 137.402 109.801C137.402 108.353 136.953 107.223 136.055 106.409C135.167 105.596 133.815 105.189 131.997 105.189H128.352V114.54H131.997ZM131.997 102.764C133.434 102.764 134.681 102.933 135.738 103.271C136.805 103.598 137.687 104.069 138.385 104.682C139.082 105.294 139.6 106.034 139.938 106.9C140.287 107.767 140.461 108.734 140.461 109.801C140.461 110.858 140.276 111.824 139.906 112.701C139.536 113.578 138.992 114.334 138.274 114.968C137.566 115.602 136.683 116.099 135.627 116.458C134.581 116.806 133.371 116.981 131.997 116.981H128.352V125.476H125.293V102.764H131.997Z" fill="black"/>
<path d="M71.1603 76.7386V84.6793H80.4957V87.1835H71.1603V96.9469H68.0854V74.2343H82.0807V76.7386H71.1603Z" fill="black"/>
<path d="M96.2443 88.5149L92.6782 79.2745C92.5725 78.9998 92.4615 78.6828 92.3453 78.3236C92.2291 77.9537 92.1181 77.5628 92.0125 77.1507C91.7906 78.0066 91.5634 78.7198 91.3309 79.2904L87.7648 88.5149H96.2443ZM102.648 96.9469H100.27C99.9954 96.9469 99.7735 96.8782 99.6045 96.7408C99.4354 96.6035 99.3086 96.4291 99.2241 96.2178L97.1002 90.7338H86.9089L84.785 96.2178C84.7216 96.408 84.6001 96.5771 84.4205 96.725C84.2409 96.8729 84.019 96.9469 83.7548 96.9469H81.3774L90.4592 74.2343H93.5657L102.648 96.9469Z" fill="black"/>
<path d="M129.267 74.2343V96.9469H126.573V80.2572C126.573 80.0353 126.578 79.7976 126.589 79.544C126.61 79.2904 126.631 79.0315 126.652 78.7673L118.854 92.9686C118.611 93.4441 118.241 93.6819 117.745 93.6819H117.301C116.804 93.6819 116.434 93.4441 116.191 92.9686L108.235 78.7039C108.298 79.264 108.33 79.7817 108.33 80.2572V96.9469H105.635V74.2343H107.902C108.177 74.2343 108.388 74.2608 108.536 74.3136C108.684 74.3664 108.827 74.5144 108.964 74.7574L116.809 88.7368C116.936 88.9904 117.058 89.2545 117.174 89.5293C117.301 89.804 117.417 90.084 117.523 90.3693C117.628 90.084 117.739 89.804 117.856 89.5293C117.972 89.244 118.099 88.9745 118.236 88.7209L125.939 74.7574C126.066 74.5144 126.203 74.3664 126.351 74.3136C126.509 74.2608 126.726 74.2343 127.001 74.2343H129.267Z" fill="black"/>
<path d="M149.086 94.4426L149.07 96.9469H135.075V74.2343H149.07V76.7386H138.15V84.283H146.994V86.6922H138.15V94.4426H149.086Z" fill="black"/>
<path d="M173.055 85.5985C173.055 87.2997 172.786 88.8477 172.247 90.2425C171.708 91.6373 170.947 92.8313 169.965 93.8245C168.982 94.8178 167.799 95.5891 166.414 96.1386C165.041 96.6774 163.519 96.9469 161.85 96.9469H153.37V74.2343H161.85C163.519 74.2343 165.041 74.5091 166.414 75.0585C167.799 75.5974 168.982 76.3688 169.965 77.3726C170.947 78.3658 171.708 79.5598 172.247 80.9546C172.786 82.3494 173.055 83.8973 173.055 85.5985ZM169.901 85.5985C169.901 84.2038 169.711 82.9569 169.331 81.858C168.95 80.7591 168.411 79.8293 167.714 79.0685C167.017 78.3077 166.171 77.7266 165.178 77.325C164.185 76.9235 163.075 76.7227 161.85 76.7227H156.445V94.4585H161.85C163.075 94.4585 164.185 94.2577 165.178 93.8562C166.171 93.4547 167.017 92.8788 167.714 92.1286C168.411 91.3678 168.95 90.438 169.331 89.3391C169.711 88.2401 169.901 86.9933 169.901 85.5985Z" fill="black"/>
</svg>
